     <svg width="24" height="26" viewBox="0 0 24 26" fill="none" xmlns="http://www.w3.org/2000/svg">
                    <g clip-path="url(#clip0)">
                        <path
                            d="M21.4286 1.625H2.57143C1.88944 1.625 1.23539 1.88181 0.753154 2.33893C0.270918 2.79605 0 3.41603 0 4.0625L0 21.9375C0 22.584 0.270918 23.204 0.753154 23.6611C1.23539 24.1182 1.88944 24.375 2.57143 24.375H9.92411V16.6405H6.54911V13H9.92411V10.2253C9.92411 7.06926 11.9063 5.32594 14.9421 5.32594C16.3961 5.32594 17.9164 5.57172 17.9164 5.57172V8.66938H16.2413C14.5907 8.66938 14.0759 9.64031 14.0759 10.6361V13H17.7605L17.1713 16.6405H14.0759V24.375H21.4286C22.1106 24.375 22.7646 24.1182 23.2468 23.6611C23.7291 23.204 24 22.584 24 21.9375V4.0625C24 3.41603 23.7291 2.79605 23.2468 2.33893C22.7646 1.88181 22.1106 1.625 21.4286 1.625V1.625Z"
                            fill="#513478" />
                    </g>
                    <defs>
                        <clipPath id="clip0">
                            <rect width="24" height="26" fill="white" />
                        </clipPath>
                    </defs>
                </svg>