<svg width="34" height="38" viewBox="0 0 34 38" fill="none" xmlns="http://www.w3.org/2000/svg">
<g clip-path="url(#clip0)">
<path d="M30.3571 2.375H3.64286C2.67671 2.375 1.75014 2.75033 1.06697 3.41843C0.3838 4.08653 0 4.99267 0 5.9375L0 32.0625C0 33.0073 0.3838 33.9135 1.06697 34.5816C1.75014 35.2497 2.67671 35.625 3.64286 35.625H30.3571C31.3233 35.625 32.2499 35.2497 32.933 34.5816C33.6162 33.9135 34 33.0073 34 32.0625V5.9375C34 4.99267 33.6162 4.08653 32.933 3.41843C32.2499 2.75033 31.3233 2.375 30.3571 2.375ZM29.1133 25.1876L27.9749 30.0118C27.917 30.2571 27.7759 30.476 27.5746 30.6327C27.3732 30.7895 27.1235 30.8749 26.8661 30.875C14.7232 30.875 4.85714 21.2481 4.85714 9.35156C4.86618 9.10223 4.9568 8.86231 5.11569 8.66711C5.27458 8.47192 5.49334 8.33175 5.73978 8.26723L10.6728 7.15395C10.757 7.13654 10.8426 7.12685 10.9286 7.125C11.1487 7.13587 11.3619 7.20416 11.5459 7.3228C11.7299 7.44143 11.8781 7.60608 11.9751 7.79965L14.2519 12.995C14.3077 13.135 14.3387 13.2834 14.3438 13.4336C14.3252 13.7632 14.1754 14.0725 13.9263 14.2953L11.0508 16.5961C12.7931 20.2075 15.7653 23.1141 19.4582 24.818L21.8109 22.0059C22.0387 21.7623 22.355 21.6158 22.692 21.5977C22.8456 21.6025 22.9973 21.6329 23.1405 21.6875L28.453 23.914C28.651 24.0087 28.8195 24.1537 28.9408 24.3337C29.0621 24.5137 29.1319 24.7222 29.1429 24.9375C29.1413 25.0216 29.1314 25.1054 29.1133 25.1876Z" fill="#371267"/>
</g>
<defs>
<clipPath id="clip0">
<rect width="34" height="38" fill="white"/>
</clipPath>
</defs>
</svg>
